M48
;Layer_Color=9474304
;FILE_FORMAT=2:5
INCH,LZ
;TYPE=PLATED
T1F00S00C0.01181
T4F00S00C0.02795
T5F00S00C0.04094
T6F00S00C0.04724
;TYPE=NON_PLATED
T8F00S00C0.07874
T9F00S00C0.12598
%
T01
X0251629Y0024
X02685
X01184
Y0034
Y0044
Y0054
Y0064
Y0074
Y0084
Y0094
Y0104
Y0114
Y0124
Y0134
Y0144
Y0154
Y0164
Y0174
X0102Y0024057
X001Y03028
X00424Y029608
X0047001Y0293543
Y0306753
X00546Y03153
X0056224Y0321828
X00731Y0314757
X0062459Y030323
X0058518Y0290695
X0041302Y0281043
X01184Y0284
Y0274
Y0264
Y0254
Y0244
Y0234
Y0224
Y0214
Y0204
Y0194
Y0184
Y0294
Y0304
Y03139
X01026Y0329805
X0251629Y0314
X02685
X0258394Y03916
X0243Y03989
X02281Y03914
X02271Y04158
X0216Y0431
X0196
X0201Y0448787
X0206
X0211
X0251
X0256
X0276
X0281
X0286
X01985Y03935
Y0377
X01885
X01785
X0178543Y0393457
X0176Y0431
X0161
X0134173Y043
X0126
X01159Y04299
X0071943Y0428173
Y0422876
Y04177
X0052258
Y0422876
Y0428173
X0037324Y042728
Y04198
X0036271Y0452324
X0032024Y036896
X0069416Y0343248
X01025Y0339705
X0118957Y0339605
X00281Y03837
X00116Y0369191
X00163Y04381
X002466
X00284
X0011524Y045134
X002186Y0464976
T04
X0021319Y02978
Y03028
Y03078
T05
X0196Y03985
Y04085
X0186
X0176
Y03985
X0186
X0144173
X0134173
Y04085
X0124173
Y03985
X0114173
X0104173
Y04085
X0114173
X0144173
T06
X00175Y02225
Y02325
Y02425
X00375
Y02325
Y02225
X0195Y0333248
Y0343248
X0205
X0215
X0225
X0235
Y0333248
X0225
X0215
X0205
X0175
Y0343248
X0165
X0155
X0145
X0135
Y0333248
X0145
X0155
X0165
T08
X01848Y00375
X0185Y03075
X0239425Y0467665
X0137457
T09
X0015Y0015
X029
Y041
X0015Y0405
M30
