G04*
G04 #@! TF.GenerationSoftware,Altium Limited,Altium Designer,21.7.2 (23)*
G04*
G04 Layer_Physical_Order=4*
G04 Layer_Color=16711680*
%FSLAX44Y44*%
%MOMM*%
G71*
G04*
G04 #@! TF.SameCoordinates,00971F6B-01B7-437C-A71D-B90B6339D582*
G04*
G04*
G04 #@! TF.FilePolarity,Positive*
G04*
G01*
G75*
%ADD12C,0.2000*%
%ADD75C,0.3000*%
%ADD76C,0.7620*%
%ADD77C,0.3048*%
%ADD80O,2.0000X1.6000*%
%ADD81C,3.2000*%
%ADD82C,1.5500*%
%ADD83R,1.5500X1.5500*%
%ADD84O,0.8000X1.0000*%
%ADD85O,0.8000X1.5000*%
G04:AMPARAMS|DCode=86|XSize=5.5mm|YSize=1.1mm|CornerRadius=0.275mm|HoleSize=0mm|Usage=FLASHONLY|Rotation=270.000|XOffset=0mm|YOffset=0mm|HoleType=Round|Shape=RoundedRectangle|*
%AMROUNDEDRECTD86*
21,1,5.5000,0.5500,0,0,270.0*
21,1,4.9500,1.1000,0,0,270.0*
1,1,0.5500,-0.2750,-2.4750*
1,1,0.5500,-0.2750,2.4750*
1,1,0.5500,0.2750,2.4750*
1,1,0.5500,0.2750,-2.4750*
%
%ADD86ROUNDEDRECTD86*%
%ADD87C,1.6000*%
%ADD88C,2.0000*%
%ADD89R,1.6000X1.6000*%
%ADD90C,0.6000*%
G04:AMPARAMS|DCode=100|XSize=0.9mm|YSize=3.45mm|CornerRadius=0.351mm|HoleSize=0mm|Usage=FLASHONLY|Rotation=90.000|XOffset=0mm|YOffset=0mm|HoleType=Round|Shape=RoundedRectangle|*
%AMROUNDEDRECTD100*
21,1,0.9000,2.7480,0,0,90.0*
21,1,0.1980,3.4500,0,0,90.0*
1,1,0.7020,1.3740,0.0990*
1,1,0.7020,1.3740,-0.0990*
1,1,0.7020,-1.3740,-0.0990*
1,1,0.7020,-1.3740,0.0990*
%
%ADD100ROUNDEDRECTD100*%
G04:AMPARAMS|DCode=101|XSize=0.9mm|YSize=2.95mm|CornerRadius=0.351mm|HoleSize=0mm|Usage=FLASHONLY|Rotation=90.000|XOffset=0mm|YOffset=0mm|HoleType=Round|Shape=RoundedRectangle|*
%AMROUNDEDRECTD101*
21,1,0.9000,2.2480,0,0,90.0*
21,1,0.1980,2.9500,0,0,90.0*
1,1,0.7020,1.1240,0.0990*
1,1,0.7020,1.1240,-0.0990*
1,1,0.7020,-1.1240,-0.0990*
1,1,0.7020,-1.1240,0.0990*
%
%ADD101ROUNDEDRECTD101*%
%ADD102C,1.1000*%
G36*
X165100Y1209040D02*
Y1181038D01*
X66040D01*
X45720Y1201358D01*
Y1206500D01*
Y1231900D01*
X142240D01*
X165100Y1209040D01*
D02*
G37*
D12*
X51150Y756412D02*
Y757856D01*
D75*
X158646Y770205D02*
Y881530D01*
X234696Y957580D01*
X333248D01*
X447040Y1071372D01*
Y1094740D01*
X290000Y1087560D02*
X294386Y1091946D01*
X290000Y1037590D02*
Y1087560D01*
X408940Y1080330D02*
Y1094740D01*
X366200Y1037590D02*
X408940Y1080330D01*
X320040Y1091388D02*
Y1092200D01*
X318659Y1088975D02*
Y1090007D01*
X315400Y1085716D02*
X318659Y1088975D01*
Y1090007D02*
X320040Y1091388D01*
X315400Y1037590D02*
Y1085716D01*
X340800Y1037590D02*
Y1092200D01*
D76*
X95250Y590550D02*
X174896D01*
X44450D02*
X95250D01*
X174896D02*
X196850Y612504D01*
Y871850D02*
X342900D01*
X176316D02*
X196850D01*
Y612504D02*
Y871850D01*
X596900D02*
X617220Y892170D01*
Y1013206D01*
X342900Y871850D02*
X368300D01*
X571500D02*
X596900D01*
X546100D02*
X571500D01*
X520700D02*
X546100D01*
X495300D02*
X520700D01*
X444500D02*
X495300D01*
X419100D02*
X444500D01*
X393700D02*
X419100D01*
X368300D02*
X393700D01*
D77*
X303784Y1110488D02*
X324612Y1131316D01*
X514637D02*
X523240Y1139919D01*
X324612Y1131316D02*
X514637D01*
X277368Y1096264D02*
X318056Y1136952D01*
X507279D01*
X510245Y1139919D01*
X343916Y1126236D02*
X523748D01*
X534464Y1136952D01*
X328168Y1110488D02*
X343916Y1126236D01*
X353822Y1097534D02*
X377698Y1121410D01*
X619031D02*
X637540Y1139919D01*
X377698Y1121410D02*
X619031D01*
X624332Y1116076D02*
X647610Y1139354D01*
X424180Y1088975D02*
X451281Y1116076D01*
X624332D01*
X366200Y1012190D02*
X366776D01*
X424180Y1069594D02*
Y1088975D01*
X366776Y1012190D02*
X424180Y1069594D01*
X576580Y1056132D02*
X576834D01*
X548640Y1084072D02*
X576580Y1056132D01*
X548640Y1084072D02*
Y1094740D01*
X497840Y1037590D02*
Y1094740D01*
X328168Y1024958D02*
Y1110488D01*
X647610Y1139354D02*
X649675D01*
X650240Y1139919D01*
X510245D02*
X510540D01*
X344251Y1020069D02*
X353822Y1029640D01*
Y1097534D01*
X340800Y1012190D02*
Y1015559D01*
X344251Y1019010D01*
Y1020069D01*
X535940Y1139120D02*
Y1139919D01*
X534464Y1137644D02*
X535940Y1139120D01*
X534464Y1136952D02*
Y1137644D01*
X303784Y1025974D02*
Y1110488D01*
X290000Y1012190D02*
X303784Y1025974D01*
X315400Y1012190D02*
X328168Y1024958D01*
X277368Y1027684D02*
Y1096264D01*
X264600Y1012190D02*
Y1014916D01*
X277368Y1027684D01*
X36503Y781812D02*
X39328Y784637D01*
Y787948D01*
X25400Y781812D02*
X36503D01*
X39328Y787948D02*
X43537Y792157D01*
X60775D01*
X65786Y787146D01*
Y761238D02*
Y787146D01*
X61629Y757081D02*
X65786Y761238D01*
X54150Y756412D02*
X54819Y757081D01*
X61629D01*
X48770Y780291D02*
X52628D01*
X46110Y759337D02*
Y777630D01*
X52628Y780291D02*
X54150Y781812D01*
X46110Y777630D02*
X48770Y780291D01*
X44324Y757551D02*
X46110Y759337D01*
X29039Y757551D02*
X44324D01*
X27900Y756412D02*
X29039Y757551D01*
D80*
X95250Y565150D02*
D03*
Y590550D02*
D03*
Y615950D02*
D03*
X44450Y565150D02*
D03*
Y590550D02*
D03*
Y615950D02*
D03*
D81*
X736600Y38100D02*
D03*
X38100Y1028700D02*
D03*
Y38100D02*
D03*
X736600Y1041400D02*
D03*
D82*
X472440Y1037590D02*
D03*
X497840D02*
D03*
X447040Y1012190D02*
D03*
X497840D02*
D03*
X472440D02*
D03*
X340800Y1037590D02*
D03*
Y1012190D02*
D03*
X290000D02*
D03*
X315400D02*
D03*
X264600D02*
D03*
X315400Y1037590D02*
D03*
X290000D02*
D03*
X366200Y1012190D02*
D03*
Y1037590D02*
D03*
D83*
X447040D02*
D03*
X264600D02*
D03*
D84*
X117960Y1189990D02*
D03*
X73510D02*
D03*
D85*
X137010Y1220470D02*
D03*
X53790D02*
D03*
D86*
X208790Y1203970D02*
D03*
X748790D02*
D03*
D87*
X608140Y1187870D02*
D03*
X349140D02*
D03*
D88*
X469392Y95250D02*
D03*
X469900Y781050D02*
D03*
D89*
X444500Y871850D02*
D03*
X419100D02*
D03*
X393700D02*
D03*
X495300D02*
D03*
X520700D02*
D03*
X546100D02*
D03*
X342900D02*
D03*
X368300D02*
D03*
X596900D02*
D03*
X571500D02*
D03*
Y846450D02*
D03*
X596900D02*
D03*
X368300D02*
D03*
X342900D02*
D03*
X546100D02*
D03*
X520700D02*
D03*
X495300D02*
D03*
X393700D02*
D03*
X419100D02*
D03*
X444500D02*
D03*
D90*
X185674Y799482D02*
D03*
X158646Y770205D02*
D03*
X138684Y800862D02*
D03*
X142810Y817442D02*
D03*
X132734Y1074104D02*
D03*
X656321Y994664D02*
D03*
X453500Y999380D02*
D03*
X579374Y994156D02*
D03*
X478790Y957580D02*
D03*
X504190D02*
D03*
X701040Y1139919D02*
D03*
X713740D02*
D03*
X726440D02*
D03*
X302150Y862596D02*
D03*
X71374Y974598D02*
D03*
X617220Y1013206D02*
D03*
X176316Y871850D02*
D03*
X447040Y1094740D02*
D03*
X576834Y1056132D02*
D03*
X548640Y1094740D02*
D03*
X497840D02*
D03*
X294386Y1091946D02*
D03*
X408940Y1094740D02*
D03*
X320040Y1092200D02*
D03*
X340800D02*
D03*
X650240Y1139919D02*
D03*
X637540D02*
D03*
X535940D02*
D03*
X523240D02*
D03*
X510540D02*
D03*
X148635Y738364D02*
D03*
X104906Y713850D02*
D03*
X119382Y745600D02*
D03*
Y779152D02*
D03*
X107696Y752044D02*
D03*
X41402Y1112774D02*
D03*
X62636D02*
D03*
X94804Y1066292D02*
D03*
X182734Y1060958D02*
D03*
Y1074104D02*
D03*
Y1087560D02*
D03*
X132734D02*
D03*
Y1060958D02*
D03*
X94804Y1085292D02*
D03*
X81342Y937158D02*
D03*
X29464Y937744D02*
D03*
X29272Y1146404D02*
D03*
X55524Y1181038D02*
D03*
X92128Y1148904D02*
D03*
X72136Y1112774D02*
D03*
X639138Y60960D02*
D03*
Y797560D02*
D03*
X259080Y61104D02*
D03*
X260604Y837704D02*
D03*
X260350Y862850D02*
D03*
X453390Y957580D02*
D03*
X504190Y999490D02*
D03*
X300736Y60960D02*
D03*
Y86360D02*
D03*
Y111760D02*
D03*
Y137160D02*
D03*
Y162560D02*
D03*
Y187960D02*
D03*
Y213360D02*
D03*
Y238760D02*
D03*
Y264160D02*
D03*
Y289560D02*
D03*
Y314960D02*
D03*
Y340360D02*
D03*
Y365760D02*
D03*
Y391160D02*
D03*
Y416560D02*
D03*
Y441960D02*
D03*
Y467360D02*
D03*
Y492760D02*
D03*
Y518160D02*
D03*
Y543560D02*
D03*
Y568960D02*
D03*
Y594360D02*
D03*
Y619760D02*
D03*
Y645160D02*
D03*
Y670560D02*
D03*
Y695960D02*
D03*
Y721360D02*
D03*
Y746760D02*
D03*
Y772160D02*
D03*
Y797306D02*
D03*
X681990Y60960D02*
D03*
Y797560D02*
D03*
X25400Y769112D02*
D03*
D100*
D03*
Y781812D02*
D03*
D101*
X27900Y756412D02*
D03*
D102*
X54150Y781812D02*
D03*
Y769112D02*
D03*
Y756412D02*
D03*
M02*
