G04*
G04 #@! TF.GenerationSoftware,Altium Limited,Altium Designer,21.7.2 (23)*
G04*
G04 Layer_Color=8421504*
%FSLAX44Y44*%
%MOMM*%
G71*
G04*
G04 #@! TF.SameCoordinates,00971F6B-01B7-437C-A71D-B90B6339D582*
G04*
G04*
G04 #@! TF.FilePolarity,Positive*
G04*
G01*
G75*
G04:AMPARAMS|DCode=15|XSize=1mm|YSize=0.7mm|CornerRadius=0.049mm|HoleSize=0mm|Usage=FLASHONLY|Rotation=90.000|XOffset=0mm|YOffset=0mm|HoleType=Round|Shape=RoundedRectangle|*
%AMROUNDEDRECTD15*
21,1,1.0000,0.6020,0,0,90.0*
21,1,0.9020,0.7000,0,0,90.0*
1,1,0.0980,0.3010,0.4510*
1,1,0.0980,0.3010,-0.4510*
1,1,0.0980,-0.3010,-0.4510*
1,1,0.0980,-0.3010,0.4510*
%
%ADD15ROUNDEDRECTD15*%
%ADD16R,0.5000X0.7000*%
%ADD17R,0.8000X0.9000*%
%ADD18R,0.7000X1.3000*%
%ADD19R,0.8000X0.5000*%
%ADD20R,0.8000X0.3000*%
%ADD21C,1.0000*%
%ADD22R,0.9000X0.8000*%
%ADD23R,0.8000X1.2500*%
%ADD24R,1.3000X0.7000*%
G04:AMPARAMS|DCode=25|XSize=0.3mm|YSize=0.45mm|CornerRadius=0.0495mm|HoleSize=0mm|Usage=FLASHONLY|Rotation=180.000|XOffset=0mm|YOffset=0mm|HoleType=Round|Shape=RoundedRectangle|*
%AMROUNDEDRECTD25*
21,1,0.3000,0.3510,0,0,180.0*
21,1,0.2010,0.4500,0,0,180.0*
1,1,0.0990,-0.1005,0.1755*
1,1,0.0990,0.1005,0.1755*
1,1,0.0990,0.1005,-0.1755*
1,1,0.0990,-0.1005,-0.1755*
%
%ADD25ROUNDEDRECTD25*%
%ADD26R,0.7000X0.7500*%
%ADD27R,0.7000X0.4000*%
%ADD28R,1.2500X0.8000*%
%ADD29R,0.5000X0.8000*%
%ADD30R,0.3000X0.8000*%
%ADD31R,0.7000X0.5000*%
%ADD32R,1.2000X1.1000*%
%ADD33R,1.6000X3.5000*%
%ADD34R,8.0000X7.0000*%
%ADD35R,0.7000X1.0000*%
%ADD36R,0.4000X1.3500*%
%ADD37R,0.8000X2.5000*%
D15*
X114882Y761794D02*
D03*
X123882D02*
D03*
D16*
X176316Y797282D02*
D03*
X182666Y817602D02*
D03*
X169966D02*
D03*
X625348Y1035050D02*
D03*
X638048D02*
D03*
X631698Y1014730D02*
D03*
X593598Y1034542D02*
D03*
X606298D02*
D03*
X599948Y1014222D02*
D03*
D17*
X612448Y1090676D02*
D03*
X635448D02*
D03*
D18*
X623948Y1054732D02*
D03*
X639448D02*
D03*
X590928Y1054862D02*
D03*
X606428D02*
D03*
X629790Y994664D02*
D03*
X645290D02*
D03*
X604650D02*
D03*
X589150D02*
D03*
X127132Y713850D02*
D03*
X111632D02*
D03*
X94104Y1168908D02*
D03*
X109604D02*
D03*
D19*
X668900Y78850D02*
D03*
Y60850D02*
D03*
X651900D02*
D03*
Y78850D02*
D03*
X668900Y815450D02*
D03*
Y797450D02*
D03*
X651900D02*
D03*
Y815450D02*
D03*
X289424Y880850D02*
D03*
Y862850D02*
D03*
X272424D02*
D03*
Y880850D02*
D03*
X289424Y855450D02*
D03*
Y837450D02*
D03*
X272424D02*
D03*
Y855450D02*
D03*
X287900Y815450D02*
D03*
Y797450D02*
D03*
X270900D02*
D03*
Y815450D02*
D03*
X287900Y78850D02*
D03*
Y60850D02*
D03*
X270900D02*
D03*
Y78850D02*
D03*
X651900Y459850D02*
D03*
Y441850D02*
D03*
X668900D02*
D03*
Y459850D02*
D03*
X651900Y485250D02*
D03*
Y467250D02*
D03*
X668900D02*
D03*
Y485250D02*
D03*
X651900Y510650D02*
D03*
Y492650D02*
D03*
X668900D02*
D03*
Y510650D02*
D03*
X651900Y536050D02*
D03*
Y518050D02*
D03*
X668900D02*
D03*
Y536050D02*
D03*
X651900Y561450D02*
D03*
Y543450D02*
D03*
X668900D02*
D03*
Y561450D02*
D03*
X651900Y586850D02*
D03*
Y568850D02*
D03*
X668900D02*
D03*
Y586850D02*
D03*
X651900Y612250D02*
D03*
Y594250D02*
D03*
X668900D02*
D03*
Y612250D02*
D03*
X651900Y637650D02*
D03*
Y619650D02*
D03*
X668900D02*
D03*
Y637650D02*
D03*
X651900Y663050D02*
D03*
Y645050D02*
D03*
X668900D02*
D03*
Y663050D02*
D03*
X651900Y688450D02*
D03*
Y670450D02*
D03*
X668900D02*
D03*
Y688450D02*
D03*
X651900Y713850D02*
D03*
Y695850D02*
D03*
X668900D02*
D03*
Y713850D02*
D03*
X651900Y739250D02*
D03*
Y721250D02*
D03*
X668900D02*
D03*
Y739250D02*
D03*
X651900Y764650D02*
D03*
Y746650D02*
D03*
X668900D02*
D03*
Y764650D02*
D03*
X651900Y790050D02*
D03*
Y772050D02*
D03*
X668900D02*
D03*
Y790050D02*
D03*
X651900Y434450D02*
D03*
Y416450D02*
D03*
X668900D02*
D03*
Y434450D02*
D03*
X651900Y409050D02*
D03*
Y391050D02*
D03*
X668900D02*
D03*
Y409050D02*
D03*
X651900Y383650D02*
D03*
Y365650D02*
D03*
X668900D02*
D03*
Y383650D02*
D03*
X651900Y358250D02*
D03*
Y340250D02*
D03*
X668900D02*
D03*
Y358250D02*
D03*
X651900Y332850D02*
D03*
Y314850D02*
D03*
X668900D02*
D03*
Y332850D02*
D03*
X651900Y307450D02*
D03*
Y289450D02*
D03*
X668900D02*
D03*
Y307450D02*
D03*
X651900Y282050D02*
D03*
Y264050D02*
D03*
X668900D02*
D03*
Y282050D02*
D03*
X651900Y256650D02*
D03*
Y238650D02*
D03*
X668900D02*
D03*
Y256650D02*
D03*
X651900Y231250D02*
D03*
Y213250D02*
D03*
X668900D02*
D03*
Y231250D02*
D03*
X651900Y205850D02*
D03*
Y187850D02*
D03*
X668900D02*
D03*
Y205850D02*
D03*
X651900Y180450D02*
D03*
Y162450D02*
D03*
X668900D02*
D03*
Y180450D02*
D03*
X651900Y155050D02*
D03*
Y137050D02*
D03*
X668900D02*
D03*
Y155050D02*
D03*
X651900Y129650D02*
D03*
Y111650D02*
D03*
X668900D02*
D03*
Y129650D02*
D03*
X651900Y104250D02*
D03*
Y86250D02*
D03*
X668900D02*
D03*
Y104250D02*
D03*
X270900Y434450D02*
D03*
Y416450D02*
D03*
X287900D02*
D03*
Y434450D02*
D03*
X270900Y409050D02*
D03*
Y391050D02*
D03*
X287900D02*
D03*
Y409050D02*
D03*
X270900Y383650D02*
D03*
Y365650D02*
D03*
X287900D02*
D03*
Y383650D02*
D03*
X270900Y358250D02*
D03*
Y340250D02*
D03*
X287900D02*
D03*
Y358250D02*
D03*
X270900Y332850D02*
D03*
Y314850D02*
D03*
X287900D02*
D03*
Y332850D02*
D03*
X270900Y307450D02*
D03*
Y289450D02*
D03*
X287900D02*
D03*
Y307450D02*
D03*
X270900Y282050D02*
D03*
Y264050D02*
D03*
X287900D02*
D03*
Y282050D02*
D03*
X270900Y256650D02*
D03*
Y238650D02*
D03*
X287900D02*
D03*
Y256650D02*
D03*
X270900Y231250D02*
D03*
Y213250D02*
D03*
X287900D02*
D03*
Y231250D02*
D03*
X270900Y205850D02*
D03*
Y187850D02*
D03*
X287900D02*
D03*
Y205850D02*
D03*
X270900Y180450D02*
D03*
Y162450D02*
D03*
X287900D02*
D03*
Y180450D02*
D03*
X270900Y155050D02*
D03*
Y137050D02*
D03*
X287900D02*
D03*
Y155050D02*
D03*
X270900Y129650D02*
D03*
Y111650D02*
D03*
X287900D02*
D03*
Y129650D02*
D03*
X270900Y104250D02*
D03*
Y86250D02*
D03*
X287900D02*
D03*
Y104250D02*
D03*
X270900Y459850D02*
D03*
Y441850D02*
D03*
X287900D02*
D03*
Y459850D02*
D03*
X270900Y485250D02*
D03*
Y467250D02*
D03*
X287900D02*
D03*
Y485250D02*
D03*
X270900Y510650D02*
D03*
Y492650D02*
D03*
X287900D02*
D03*
Y510650D02*
D03*
X270900Y536050D02*
D03*
Y518050D02*
D03*
X287900D02*
D03*
Y536050D02*
D03*
X270900Y561450D02*
D03*
Y543450D02*
D03*
X287900D02*
D03*
Y561450D02*
D03*
X270900Y586850D02*
D03*
Y568850D02*
D03*
X287900D02*
D03*
Y586850D02*
D03*
X270900Y612250D02*
D03*
Y594250D02*
D03*
X287900D02*
D03*
Y612250D02*
D03*
X270900Y637650D02*
D03*
Y619650D02*
D03*
X287900D02*
D03*
Y637650D02*
D03*
X270900Y663050D02*
D03*
Y645050D02*
D03*
X287900D02*
D03*
Y663050D02*
D03*
X270900Y688450D02*
D03*
Y670450D02*
D03*
X287900D02*
D03*
Y688450D02*
D03*
X270900Y713850D02*
D03*
Y695850D02*
D03*
X287900D02*
D03*
Y713850D02*
D03*
X270900Y739250D02*
D03*
Y721250D02*
D03*
X287900D02*
D03*
Y739250D02*
D03*
X270900Y764650D02*
D03*
Y746650D02*
D03*
X287900D02*
D03*
Y764650D02*
D03*
X270900Y790050D02*
D03*
Y772050D02*
D03*
X287900D02*
D03*
Y790050D02*
D03*
D20*
X668900Y69850D02*
D03*
X651900D02*
D03*
X668900Y806450D02*
D03*
X651900D02*
D03*
X289424Y871850D02*
D03*
X272424D02*
D03*
X289424Y846450D02*
D03*
X272424D02*
D03*
X287900Y806450D02*
D03*
X270900D02*
D03*
X287900Y69850D02*
D03*
X270900D02*
D03*
X651900Y450850D02*
D03*
X668900D02*
D03*
X651900Y476250D02*
D03*
X668900D02*
D03*
X651900Y501650D02*
D03*
X668900D02*
D03*
X651900Y527050D02*
D03*
X668900D02*
D03*
X651900Y552450D02*
D03*
X668900D02*
D03*
X651900Y577850D02*
D03*
X668900D02*
D03*
X651900Y603250D02*
D03*
X668900D02*
D03*
X651900Y628650D02*
D03*
X668900D02*
D03*
X651900Y654050D02*
D03*
X668900D02*
D03*
X651900Y679450D02*
D03*
X668900D02*
D03*
X651900Y704850D02*
D03*
X668900D02*
D03*
X651900Y730250D02*
D03*
X668900D02*
D03*
X651900Y755650D02*
D03*
X668900D02*
D03*
X651900Y781050D02*
D03*
X668900D02*
D03*
X651900Y425450D02*
D03*
X668900D02*
D03*
X651900Y400050D02*
D03*
X668900D02*
D03*
X651900Y374650D02*
D03*
X668900D02*
D03*
X651900Y349250D02*
D03*
X668900D02*
D03*
X651900Y323850D02*
D03*
X668900D02*
D03*
X651900Y298450D02*
D03*
X668900D02*
D03*
X651900Y273050D02*
D03*
X668900D02*
D03*
X651900Y247650D02*
D03*
X668900D02*
D03*
X651900Y222250D02*
D03*
X668900D02*
D03*
X651900Y196850D02*
D03*
X668900D02*
D03*
X651900Y171450D02*
D03*
X668900D02*
D03*
X651900Y146050D02*
D03*
X668900D02*
D03*
X651900Y120650D02*
D03*
X668900D02*
D03*
X651900Y95250D02*
D03*
X668900D02*
D03*
X270900Y425450D02*
D03*
X287900D02*
D03*
X270900Y400050D02*
D03*
X287900D02*
D03*
X270900Y374650D02*
D03*
X287900D02*
D03*
X270900Y349250D02*
D03*
X287900D02*
D03*
X270900Y323850D02*
D03*
X287900D02*
D03*
X270900Y298450D02*
D03*
X287900D02*
D03*
X270900Y273050D02*
D03*
X287900D02*
D03*
X270900Y247650D02*
D03*
X287900D02*
D03*
X270900Y222250D02*
D03*
X287900D02*
D03*
X270900Y196850D02*
D03*
X287900D02*
D03*
X270900Y171450D02*
D03*
X287900D02*
D03*
X270900Y146050D02*
D03*
X287900D02*
D03*
X270900Y120650D02*
D03*
X287900D02*
D03*
X270900Y95250D02*
D03*
X287900D02*
D03*
X270900Y450850D02*
D03*
X287900D02*
D03*
X270900Y476250D02*
D03*
X287900D02*
D03*
X270900Y501650D02*
D03*
X287900D02*
D03*
X270900Y527050D02*
D03*
X287900D02*
D03*
X270900Y552450D02*
D03*
X287900D02*
D03*
X270900Y577850D02*
D03*
X287900D02*
D03*
X270900Y603250D02*
D03*
X287900D02*
D03*
X270900Y628650D02*
D03*
X287900D02*
D03*
X270900Y654050D02*
D03*
X287900D02*
D03*
X270900Y679450D02*
D03*
X287900D02*
D03*
X270900Y704850D02*
D03*
X287900D02*
D03*
X270900Y730250D02*
D03*
X287900D02*
D03*
X270900Y755650D02*
D03*
X287900D02*
D03*
X270900Y781050D02*
D03*
X287900D02*
D03*
D21*
X629790Y945642D02*
D03*
X604650D02*
D03*
D22*
X89916Y718012D02*
D03*
Y741012D02*
D03*
D23*
X109882Y817442D02*
D03*
X128882D02*
D03*
X109882Y793892D02*
D03*
X128882D02*
D03*
X74524Y1168908D02*
D03*
X55524D02*
D03*
D24*
X147574Y769490D02*
D03*
Y784990D02*
D03*
X50800Y956180D02*
D03*
Y971680D02*
D03*
X127508Y1171578D02*
D03*
Y1156078D02*
D03*
D25*
X112882Y752044D02*
D03*
X119382D02*
D03*
X125882D02*
D03*
Y771544D02*
D03*
X119382D02*
D03*
X112882D02*
D03*
D26*
X89916Y797678D02*
D03*
Y812178D02*
D03*
D27*
X91062Y783080D02*
D03*
Y776080D02*
D03*
X91527Y757395D02*
D03*
Y764395D02*
D03*
D28*
X148635Y728864D02*
D03*
Y747864D02*
D03*
X93472Y956158D02*
D03*
Y937158D02*
D03*
X106934Y1085292D02*
D03*
Y1066292D02*
D03*
X41402Y1127404D02*
D03*
Y1146404D02*
D03*
X153670Y1168552D02*
D03*
Y1187552D02*
D03*
D29*
X486300Y986400D02*
D03*
X504300D02*
D03*
Y969400D02*
D03*
X486300D02*
D03*
X460900Y986400D02*
D03*
X478900D02*
D03*
Y969400D02*
D03*
X460900D02*
D03*
X435500Y986400D02*
D03*
X453500D02*
D03*
Y969400D02*
D03*
X435500D02*
D03*
D30*
X495300Y986400D02*
D03*
Y969400D02*
D03*
X469900Y986400D02*
D03*
Y969400D02*
D03*
X444500Y986400D02*
D03*
Y969400D02*
D03*
D31*
X80518Y974852D02*
D03*
Y987552D02*
D03*
X100838Y981202D02*
D03*
D32*
X29464Y970874D02*
D03*
Y949874D02*
D03*
D33*
X182734Y1074104D02*
D03*
X132734D02*
D03*
D34*
X157734Y971104D02*
D03*
D35*
X62636Y1124904D02*
D03*
X72136D02*
D03*
X81636D02*
D03*
X62636Y1148904D02*
D03*
X81636D02*
D03*
D36*
X82400Y1193800D02*
D03*
X88900D02*
D03*
X95400D02*
D03*
X101900D02*
D03*
X108400D02*
D03*
D37*
X726440Y1118870D02*
D03*
X713740D02*
D03*
X701040D02*
D03*
X688340D02*
D03*
X675640D02*
D03*
X662940D02*
D03*
X650240D02*
D03*
X637540D02*
D03*
X624840D02*
D03*
X612140D02*
D03*
X599440D02*
D03*
X586740D02*
D03*
X574040D02*
D03*
X561340D02*
D03*
X548640D02*
D03*
X535940D02*
D03*
X523240D02*
D03*
X510540D02*
D03*
X497840D02*
D03*
X485140D02*
D03*
X472440D02*
D03*
X459740D02*
D03*
X447040D02*
D03*
X434340D02*
D03*
X421640D02*
D03*
X408940D02*
D03*
X396240D02*
D03*
X383540D02*
D03*
X370840D02*
D03*
X358140D02*
D03*
X345440D02*
D03*
X332740D02*
D03*
X320040D02*
D03*
X307340D02*
D03*
X294640D02*
D03*
X281940D02*
D03*
X269240D02*
D03*
X256540D02*
D03*
X243840D02*
D03*
X231140D02*
D03*
M02*
