G04*
G04 #@! TF.GenerationSoftware,Altium Limited,Altium Designer,21.7.2 (23)*
G04*
G04 Layer_Physical_Order=3*
G04 Layer_Color=128*
%FSLAX44Y44*%
%MOMM*%
G71*
G04*
G04 #@! TF.SameCoordinates,00971F6B-01B7-437C-A71D-B90B6339D582*
G04*
G04*
G04 #@! TF.FilePolarity,Negative*
G04*
G01*
G75*
%ADD62C,3.4000*%
%ADD71C,2.2000*%
%ADD91C,1.0160*%
%ADD92C,1.4000*%
%ADD93C,1.2400*%
%ADD94O,0.9000X1.0500*%
%ADD95O,0.9000X1.5000*%
%ADD96O,0.7000X2.2000*%
%ADD97C,0.9100*%
%ADD98O,1.7000X0.9000*%
%ADD99C,0.5000*%
D62*
X736600Y38100D02*
D03*
X38100Y1028700D02*
D03*
Y38100D02*
D03*
X736600Y1041400D02*
D03*
D71*
X608140Y1187870D02*
D03*
X349140D02*
D03*
X469392Y95250D02*
D03*
X469900Y781050D02*
D03*
D91*
X-0Y31750D02*
G03*
X31750Y0I31750J0D01*
G01*
X742950D02*
G03*
X774700Y31807I2J31748D01*
G01*
X774700Y1212850D02*
G03*
X742990Y1244600I-31749J1D01*
G01*
X31750Y1244600D02*
G03*
X0Y1212850I0J-31750D01*
G01*
X31750Y0D02*
X742950D01*
X774700Y1212850D02*
X774700Y31807D01*
X31750Y1244600D02*
X742990Y1244600D01*
X-0Y692150D02*
X5080Y697230D01*
X-0Y692150D02*
X-0Y31750D01*
X0Y845820D02*
Y1212850D01*
Y845820D02*
X5080Y840740D01*
X59690Y840740D01*
Y802640D02*
Y840740D01*
X5080Y802640D02*
X59690D01*
X0Y797560D02*
X5080Y802640D01*
X0Y740410D02*
Y797560D01*
Y740410D02*
X5080Y735330D01*
X59690D01*
X59690Y697230D02*
X59690Y735330D01*
X5080Y697230D02*
X59690D01*
D92*
X95250Y590550D02*
D03*
Y615950D02*
D03*
X44450Y590550D02*
D03*
Y615950D02*
D03*
X444500Y871850D02*
D03*
X419100D02*
D03*
X393700D02*
D03*
X495300D02*
D03*
X520700D02*
D03*
X546100D02*
D03*
X342900D02*
D03*
X368300D02*
D03*
X596900D02*
D03*
X571500D02*
D03*
Y846450D02*
D03*
X596900D02*
D03*
X368300D02*
D03*
X342900D02*
D03*
X546100D02*
D03*
X520700D02*
D03*
X495300D02*
D03*
X393700D02*
D03*
X419100D02*
D03*
X444500D02*
D03*
D93*
X472440Y1037590D02*
D03*
X447040D02*
D03*
X497840D02*
D03*
X447040Y1012190D02*
D03*
X497840D02*
D03*
X472440D02*
D03*
X340800Y1037590D02*
D03*
Y1012190D02*
D03*
X290000D02*
D03*
X315400D02*
D03*
X264600D02*
D03*
X315400Y1037590D02*
D03*
X264600D02*
D03*
X290000D02*
D03*
X366200Y1012190D02*
D03*
Y1037590D02*
D03*
D94*
X117960Y1189990D02*
D03*
X73510D02*
D03*
D95*
X137010Y1220470D02*
D03*
X53790D02*
D03*
D96*
X208790Y1203970D02*
D03*
X748790D02*
D03*
D97*
X54150Y781812D02*
D03*
Y769112D02*
D03*
Y756412D02*
D03*
D98*
X33150Y743912D02*
D03*
Y794312D02*
D03*
D99*
X185674Y799482D02*
D03*
X158646Y770205D02*
D03*
X138684Y800862D02*
D03*
X142810Y817442D02*
D03*
X478790Y957580D02*
D03*
X504190D02*
D03*
X701040Y1139919D02*
D03*
X713740D02*
D03*
X726440D02*
D03*
X617220Y1013206D02*
D03*
X176316Y871850D02*
D03*
X447040Y1094740D02*
D03*
X576834Y1056132D02*
D03*
X548640Y1094740D02*
D03*
X497840D02*
D03*
X294386Y1091946D02*
D03*
X408940Y1094740D02*
D03*
X320040Y1092200D02*
D03*
X340800D02*
D03*
X650240Y1139919D02*
D03*
X637540D02*
D03*
X535940D02*
D03*
X523240D02*
D03*
X510540D02*
D03*
X148635Y738364D02*
D03*
X119382Y745600D02*
D03*
X94804Y1066292D02*
D03*
X182734Y1060958D02*
D03*
Y1074104D02*
D03*
Y1087560D02*
D03*
X81342Y937158D02*
D03*
X29464Y937744D02*
D03*
X29272Y1146404D02*
D03*
X55524Y1181038D02*
D03*
X92128Y1148904D02*
D03*
X72136Y1112774D02*
D03*
X639138Y60960D02*
D03*
Y797560D02*
D03*
X259080Y61104D02*
D03*
X260604Y837704D02*
D03*
X260350Y862850D02*
D03*
X453390Y957580D02*
D03*
X25400Y769112D02*
D03*
M02*
