G04*
G04 #@! TF.GenerationSoftware,Altium Limited,Altium Designer,21.7.2 (23)*
G04*
G04 Layer_Color=16711935*
%FSLAX44Y44*%
%MOMM*%
G71*
G04*
G04 #@! TF.SameCoordinates,2D43C529-5F5C-4530-9EA0-3B9ACAEA384B*
G04*
G04*
G04 #@! TF.FilePolarity,Negative*
G04*
G01*
G75*
%ADD61O,1.2000X1.7000*%
%ADD62C,1.2000*%
G04:AMPARAMS|DCode=63|XSize=5.7mm|YSize=1.4mm|CornerRadius=0.4mm|HoleSize=0mm|Usage=FLASHONLY|Rotation=270.000|XOffset=0mm|YOffset=0mm|HoleType=Round|Shape=RoundedRectangle|*
%AMROUNDEDRECTD63*
21,1,5.7000,0.6000,0,0,270.0*
21,1,4.9000,1.4000,0,0,270.0*
1,1,0.8000,-0.3000,-2.4500*
1,1,0.8000,-0.3000,2.4500*
1,1,0.8000,0.3000,2.4500*
1,1,0.8000,0.3000,-2.4500*
%
%ADD63ROUNDEDRECTD63*%
%ADD64C,1.8000*%
%ADD65O,2.2000X1.8000*%
%ADD66C,3.4000*%
%ADD67C,1.7500*%
%ADD68R,1.7500X1.7500*%
%ADD70C,0.2000*%
%ADD71C,2.2000*%
%ADD72R,1.8000X1.8000*%
%ADD73C,0.8000*%
G04:AMPARAMS|DCode=97|XSize=0.9mm|YSize=3.45mm|CornerRadius=0.351mm|HoleSize=0mm|Usage=FLASHONLY|Rotation=90.000|XOffset=0mm|YOffset=0mm|HoleType=Round|Shape=RoundedRectangle|*
%AMROUNDEDRECTD97*
21,1,0.9000,2.7480,0,0,90.0*
21,1,0.1980,3.4500,0,0,90.0*
1,1,0.7020,1.3740,0.0990*
1,1,0.7020,1.3740,-0.0990*
1,1,0.7020,-1.3740,-0.0990*
1,1,0.7020,-1.3740,0.0990*
%
%ADD97ROUNDEDRECTD97*%
G04:AMPARAMS|DCode=98|XSize=0.9mm|YSize=2.95mm|CornerRadius=0.351mm|HoleSize=0mm|Usage=FLASHONLY|Rotation=90.000|XOffset=0mm|YOffset=0mm|HoleType=Round|Shape=RoundedRectangle|*
%AMROUNDEDRECTD98*
21,1,0.9000,2.2480,0,0,90.0*
21,1,0.1980,2.9500,0,0,90.0*
1,1,0.7020,1.1240,0.0990*
1,1,0.7020,1.1240,-0.0990*
1,1,0.7020,-1.1240,-0.0990*
1,1,0.7020,-1.1240,0.0990*
%
%ADD98ROUNDEDRECTD98*%
%ADD99C,1.1000*%
D61*
X53790Y1220470D02*
D03*
X137010D02*
D03*
D62*
X72494Y1189990D02*
D03*
X117960D02*
D03*
D63*
X208790Y1203970D02*
D03*
X748790D02*
D03*
D64*
X608140Y1187870D02*
D03*
X349140D02*
D03*
D65*
X95250Y565150D02*
D03*
Y590550D02*
D03*
Y615950D02*
D03*
X44450Y565150D02*
D03*
Y590550D02*
D03*
Y615950D02*
D03*
D66*
X736600Y38100D02*
D03*
X38100Y1028700D02*
D03*
Y38100D02*
D03*
X736600Y1041400D02*
D03*
D67*
X472440Y1037590D02*
D03*
X497840D02*
D03*
X447040Y1012190D02*
D03*
X497840D02*
D03*
X472440D02*
D03*
X340800Y1037590D02*
D03*
Y1012190D02*
D03*
X290000D02*
D03*
X315400D02*
D03*
X264600D02*
D03*
X315400Y1037590D02*
D03*
X290000D02*
D03*
X366200Y1012190D02*
D03*
Y1037590D02*
D03*
D68*
X447040D02*
D03*
X264600D02*
D03*
D70*
X33150Y743912D02*
D03*
Y794312D02*
D03*
D71*
X469392Y95250D02*
D03*
X469900Y781050D02*
D03*
D72*
X444500Y871850D02*
D03*
X419100D02*
D03*
X393700D02*
D03*
X495300D02*
D03*
X520700D02*
D03*
X546100D02*
D03*
X342900D02*
D03*
X368300D02*
D03*
X596900D02*
D03*
X571500D02*
D03*
Y846450D02*
D03*
X596900D02*
D03*
X368300D02*
D03*
X342900D02*
D03*
X546100D02*
D03*
X520700D02*
D03*
X495300D02*
D03*
X393700D02*
D03*
X419100D02*
D03*
X444500D02*
D03*
D73*
X185674Y799482D02*
D03*
X158646Y770205D02*
D03*
X138684Y800862D02*
D03*
X142810Y817442D02*
D03*
X132734Y1074104D02*
D03*
X656321Y994664D02*
D03*
X453500Y999380D02*
D03*
X579374Y994156D02*
D03*
X478790Y957580D02*
D03*
X504190D02*
D03*
X701040Y1139919D02*
D03*
X713740D02*
D03*
X726440D02*
D03*
X302150Y862596D02*
D03*
X71374Y974598D02*
D03*
X617220Y1013206D02*
D03*
X176316Y871850D02*
D03*
X447040Y1094740D02*
D03*
X576834Y1056132D02*
D03*
X548640Y1094740D02*
D03*
X497840D02*
D03*
X294386Y1091946D02*
D03*
X408940Y1094740D02*
D03*
X320040Y1092200D02*
D03*
X340800D02*
D03*
X650240Y1139919D02*
D03*
X637540D02*
D03*
X535940D02*
D03*
X523240D02*
D03*
X510540D02*
D03*
X148635Y738364D02*
D03*
X104906Y713850D02*
D03*
X119382Y745600D02*
D03*
Y779152D02*
D03*
X107696Y752044D02*
D03*
X41402Y1112774D02*
D03*
X62636D02*
D03*
X94804Y1066292D02*
D03*
X182734Y1060958D02*
D03*
Y1074104D02*
D03*
Y1087560D02*
D03*
X132734D02*
D03*
Y1060958D02*
D03*
X94804Y1085292D02*
D03*
X81342Y937158D02*
D03*
X29464Y937744D02*
D03*
X29272Y1146404D02*
D03*
X55524Y1181038D02*
D03*
X92128Y1148904D02*
D03*
X72136Y1112774D02*
D03*
X639138Y60960D02*
D03*
Y797560D02*
D03*
X259080Y61104D02*
D03*
X260604Y837704D02*
D03*
X260350Y862850D02*
D03*
X453390Y957580D02*
D03*
X504190Y999490D02*
D03*
X300736Y60960D02*
D03*
Y86360D02*
D03*
Y111760D02*
D03*
Y137160D02*
D03*
Y162560D02*
D03*
Y187960D02*
D03*
Y213360D02*
D03*
Y238760D02*
D03*
Y264160D02*
D03*
Y289560D02*
D03*
Y314960D02*
D03*
Y340360D02*
D03*
Y365760D02*
D03*
Y391160D02*
D03*
Y416560D02*
D03*
Y441960D02*
D03*
Y467360D02*
D03*
Y492760D02*
D03*
Y518160D02*
D03*
Y543560D02*
D03*
Y568960D02*
D03*
Y594360D02*
D03*
Y619760D02*
D03*
Y645160D02*
D03*
Y670560D02*
D03*
Y695960D02*
D03*
Y721360D02*
D03*
Y746760D02*
D03*
Y772160D02*
D03*
Y797306D02*
D03*
X681990Y60960D02*
D03*
Y797560D02*
D03*
D97*
X25400Y769112D02*
D03*
Y781812D02*
D03*
D98*
X27900Y756412D02*
D03*
D99*
X54150Y781812D02*
D03*
Y769112D02*
D03*
Y756412D02*
D03*
M02*
