G04*
G04 #@! TF.GenerationSoftware,Altium Limited,Altium Designer,21.7.2 (23)*
G04*
G04 Layer_Color=8388736*
%FSLAX44Y44*%
%MOMM*%
G71*
G04*
G04 #@! TF.SameCoordinates,2D43C529-5F5C-4530-9EA0-3B9ACAEA384B*
G04*
G04*
G04 #@! TF.FilePolarity,Negative*
G04*
G01*
G75*
%ADD19R,0.8000X0.9000*%
%ADD24R,0.9000X0.8000*%
%ADD38R,0.6032X1.5532*%
%ADD39R,1.0000X2.7000*%
%ADD40R,0.5400X0.7400*%
%ADD41R,0.9000X1.5000*%
%ADD42R,1.0000X0.7000*%
%ADD43R,1.0000X0.5000*%
%ADD44C,1.0400*%
%ADD45R,1.0032X1.4532*%
%ADD46R,1.5000X0.9000*%
G04:AMPARAMS|DCode=47|XSize=0.5mm|YSize=0.65mm|CornerRadius=0.1495mm|HoleSize=0mm|Usage=FLASHONLY|Rotation=180.000|XOffset=0mm|YOffset=0mm|HoleType=Round|Shape=RoundedRectangle|*
%AMROUNDEDRECTD47*
21,1,0.5000,0.3510,0,0,180.0*
21,1,0.2010,0.6500,0,0,180.0*
1,1,0.2990,-0.1005,0.1755*
1,1,0.2990,0.1005,0.1755*
1,1,0.2990,0.1005,-0.1755*
1,1,0.2990,-0.1005,-0.1755*
%
%ADD47ROUNDEDRECTD47*%
G04:AMPARAMS|DCode=48|XSize=1.2mm|YSize=1.8mm|CornerRadius=0.15mm|HoleSize=0mm|Usage=FLASHONLY|Rotation=90.000|XOffset=0mm|YOffset=0mm|HoleType=Round|Shape=RoundedRectangle|*
%AMROUNDEDRECTD48*
21,1,1.2000,1.5000,0,0,90.0*
21,1,0.9000,1.8000,0,0,90.0*
1,1,0.3000,0.7500,0.4500*
1,1,0.3000,0.7500,-0.4500*
1,1,0.3000,-0.7500,-0.4500*
1,1,0.3000,-0.7500,0.4500*
%
%ADD48ROUNDEDRECTD48*%
%ADD49R,0.9000X0.9500*%
%ADD50R,0.7508X0.4508*%
%ADD51R,1.4532X1.0032*%
%ADD52R,0.7000X1.0000*%
%ADD53R,0.5000X1.0000*%
%ADD54R,0.7400X0.5400*%
%ADD55R,1.4000X1.3000*%
%ADD56R,1.8000X3.7000*%
%ADD57R,8.2000X7.2000*%
%ADD58R,0.8016X1.1016*%
G04:AMPARAMS|DCode=59|XSize=0.9mm|YSize=4.3mm|CornerRadius=0.351mm|HoleSize=0mm|Usage=FLASHONLY|Rotation=90.000|XOffset=0mm|YOffset=0mm|HoleType=Round|Shape=RoundedRectangle|*
%AMROUNDEDRECTD59*
21,1,0.9000,3.5980,0,0,90.0*
21,1,0.1980,4.3000,0,0,90.0*
1,1,0.7020,1.7990,0.0990*
1,1,0.7020,1.7990,-0.0990*
1,1,0.7020,-1.7990,-0.0990*
1,1,0.7020,-1.7990,0.0990*
%
%ADD59ROUNDEDRECTD59*%
G04:AMPARAMS|DCode=60|XSize=0.9mm|YSize=4.8mm|CornerRadius=0.351mm|HoleSize=0mm|Usage=FLASHONLY|Rotation=90.000|XOffset=0mm|YOffset=0mm|HoleType=Round|Shape=RoundedRectangle|*
%AMROUNDEDRECTD60*
21,1,0.9000,4.0980,0,0,90.0*
21,1,0.1980,4.8000,0,0,90.0*
1,1,0.7020,2.0490,0.0990*
1,1,0.7020,2.0490,-0.0990*
1,1,0.7020,-2.0490,-0.0990*
1,1,0.7020,-2.0490,0.0990*
%
%ADD60ROUNDEDRECTD60*%
%ADD61O,1.2000X1.7000*%
%ADD62C,1.2000*%
G04:AMPARAMS|DCode=63|XSize=5.7mm|YSize=1.4mm|CornerRadius=0.4mm|HoleSize=0mm|Usage=FLASHONLY|Rotation=270.000|XOffset=0mm|YOffset=0mm|HoleType=Round|Shape=RoundedRectangle|*
%AMROUNDEDRECTD63*
21,1,5.7000,0.6000,0,0,270.0*
21,1,4.9000,1.4000,0,0,270.0*
1,1,0.8000,-0.3000,-2.4500*
1,1,0.8000,-0.3000,2.4500*
1,1,0.8000,0.3000,2.4500*
1,1,0.8000,0.3000,-2.4500*
%
%ADD63ROUNDEDRECTD63*%
%ADD64C,1.8000*%
%ADD65O,2.2000X1.8000*%
%ADD66C,3.4000*%
%ADD67C,1.7500*%
%ADD68R,1.7500X1.7500*%
%ADD69C,1.1100*%
%ADD70C,0.2000*%
%ADD71C,2.2000*%
%ADD72R,1.8000X1.8000*%
%ADD73C,0.8000*%
D19*
X612448Y1090676D02*
D03*
X635448D02*
D03*
D24*
X89916Y718012D02*
D03*
Y741012D02*
D03*
D38*
X108400Y1193800D02*
D03*
X101900D02*
D03*
X95400D02*
D03*
X88900D02*
D03*
X82400D02*
D03*
D39*
X726440Y1118870D02*
D03*
X713740D02*
D03*
X701040D02*
D03*
X688340D02*
D03*
X675640D02*
D03*
X662940D02*
D03*
X650240D02*
D03*
X637540D02*
D03*
X624840D02*
D03*
X612140D02*
D03*
X599440D02*
D03*
X586740D02*
D03*
X574040D02*
D03*
X561340D02*
D03*
X548640D02*
D03*
X535940D02*
D03*
X523240D02*
D03*
X510540D02*
D03*
X497840D02*
D03*
X485140D02*
D03*
X472440D02*
D03*
X459740D02*
D03*
X447040D02*
D03*
X434340D02*
D03*
X421640D02*
D03*
X408940D02*
D03*
X396240D02*
D03*
X383540D02*
D03*
X370840D02*
D03*
X358140D02*
D03*
X345440D02*
D03*
X332740D02*
D03*
X320040D02*
D03*
X307340D02*
D03*
X294640D02*
D03*
X281940D02*
D03*
X269240D02*
D03*
X256540D02*
D03*
X243840D02*
D03*
X231140D02*
D03*
D40*
X176316Y797282D02*
D03*
X182666Y817602D02*
D03*
X169966D02*
D03*
X625348Y1035050D02*
D03*
X638048D02*
D03*
X631698Y1014730D02*
D03*
X593598Y1034542D02*
D03*
X606298D02*
D03*
X599948Y1014222D02*
D03*
D41*
X623948Y1054732D02*
D03*
X639448D02*
D03*
X590928Y1054862D02*
D03*
X606428D02*
D03*
X629790Y994664D02*
D03*
X645290D02*
D03*
X604650D02*
D03*
X589150D02*
D03*
X127132Y713850D02*
D03*
X111632D02*
D03*
X94104Y1168908D02*
D03*
X109604D02*
D03*
D42*
X668900Y78850D02*
D03*
Y60850D02*
D03*
X651900D02*
D03*
Y78850D02*
D03*
X668900Y815450D02*
D03*
Y797450D02*
D03*
X651900D02*
D03*
Y815450D02*
D03*
X289424Y880850D02*
D03*
Y862850D02*
D03*
X272424D02*
D03*
Y880850D02*
D03*
X289424Y855450D02*
D03*
Y837450D02*
D03*
X272424D02*
D03*
Y855450D02*
D03*
X287900Y815450D02*
D03*
Y797450D02*
D03*
X270900D02*
D03*
Y815450D02*
D03*
X287900Y78850D02*
D03*
Y60850D02*
D03*
X270900D02*
D03*
Y78850D02*
D03*
X651900Y459850D02*
D03*
Y441850D02*
D03*
X668900D02*
D03*
Y459850D02*
D03*
X651900Y485250D02*
D03*
Y467250D02*
D03*
X668900D02*
D03*
Y485250D02*
D03*
X651900Y510650D02*
D03*
Y492650D02*
D03*
X668900D02*
D03*
Y510650D02*
D03*
X651900Y536050D02*
D03*
Y518050D02*
D03*
X668900D02*
D03*
Y536050D02*
D03*
X651900Y561450D02*
D03*
Y543450D02*
D03*
X668900D02*
D03*
Y561450D02*
D03*
X651900Y586850D02*
D03*
Y568850D02*
D03*
X668900D02*
D03*
Y586850D02*
D03*
X651900Y612250D02*
D03*
Y594250D02*
D03*
X668900D02*
D03*
Y612250D02*
D03*
X651900Y637650D02*
D03*
Y619650D02*
D03*
X668900D02*
D03*
Y637650D02*
D03*
X651900Y663050D02*
D03*
Y645050D02*
D03*
X668900D02*
D03*
Y663050D02*
D03*
X651900Y688450D02*
D03*
Y670450D02*
D03*
X668900D02*
D03*
Y688450D02*
D03*
X651900Y713850D02*
D03*
Y695850D02*
D03*
X668900D02*
D03*
Y713850D02*
D03*
X651900Y739250D02*
D03*
Y721250D02*
D03*
X668900D02*
D03*
Y739250D02*
D03*
X651900Y764650D02*
D03*
Y746650D02*
D03*
X668900D02*
D03*
Y764650D02*
D03*
X651900Y790050D02*
D03*
Y772050D02*
D03*
X668900D02*
D03*
Y790050D02*
D03*
X651900Y434450D02*
D03*
Y416450D02*
D03*
X668900D02*
D03*
Y434450D02*
D03*
X651900Y409050D02*
D03*
Y391050D02*
D03*
X668900D02*
D03*
Y409050D02*
D03*
X651900Y383650D02*
D03*
Y365650D02*
D03*
X668900D02*
D03*
Y383650D02*
D03*
X651900Y358250D02*
D03*
Y340250D02*
D03*
X668900D02*
D03*
Y358250D02*
D03*
X651900Y332850D02*
D03*
Y314850D02*
D03*
X668900D02*
D03*
Y332850D02*
D03*
X651900Y307450D02*
D03*
Y289450D02*
D03*
X668900D02*
D03*
Y307450D02*
D03*
X651900Y282050D02*
D03*
Y264050D02*
D03*
X668900D02*
D03*
Y282050D02*
D03*
X651900Y256650D02*
D03*
Y238650D02*
D03*
X668900D02*
D03*
Y256650D02*
D03*
X651900Y231250D02*
D03*
Y213250D02*
D03*
X668900D02*
D03*
Y231250D02*
D03*
X651900Y205850D02*
D03*
Y187850D02*
D03*
X668900D02*
D03*
Y205850D02*
D03*
X651900Y180450D02*
D03*
Y162450D02*
D03*
X668900D02*
D03*
Y180450D02*
D03*
X651900Y155050D02*
D03*
Y137050D02*
D03*
X668900D02*
D03*
Y155050D02*
D03*
X651900Y129650D02*
D03*
Y111650D02*
D03*
X668900D02*
D03*
Y129650D02*
D03*
X651900Y104250D02*
D03*
Y86250D02*
D03*
X668900D02*
D03*
Y104250D02*
D03*
X270900Y434450D02*
D03*
Y416450D02*
D03*
X287900D02*
D03*
Y434450D02*
D03*
X270900Y409050D02*
D03*
Y391050D02*
D03*
X287900D02*
D03*
Y409050D02*
D03*
X270900Y383650D02*
D03*
Y365650D02*
D03*
X287900D02*
D03*
Y383650D02*
D03*
X270900Y358250D02*
D03*
Y340250D02*
D03*
X287900D02*
D03*
Y358250D02*
D03*
X270900Y332850D02*
D03*
Y314850D02*
D03*
X287900D02*
D03*
Y332850D02*
D03*
X270900Y307450D02*
D03*
Y289450D02*
D03*
X287900D02*
D03*
Y307450D02*
D03*
X270900Y282050D02*
D03*
Y264050D02*
D03*
X287900D02*
D03*
Y282050D02*
D03*
X270900Y256650D02*
D03*
Y238650D02*
D03*
X287900D02*
D03*
Y256650D02*
D03*
X270900Y231250D02*
D03*
Y213250D02*
D03*
X287900D02*
D03*
Y231250D02*
D03*
X270900Y205850D02*
D03*
Y187850D02*
D03*
X287900D02*
D03*
Y205850D02*
D03*
X270900Y180450D02*
D03*
Y162450D02*
D03*
X287900D02*
D03*
Y180450D02*
D03*
X270900Y155050D02*
D03*
Y137050D02*
D03*
X287900D02*
D03*
Y155050D02*
D03*
X270900Y129650D02*
D03*
Y111650D02*
D03*
X287900D02*
D03*
Y129650D02*
D03*
X270900Y104250D02*
D03*
Y86250D02*
D03*
X287900D02*
D03*
Y104250D02*
D03*
X270900Y459850D02*
D03*
Y441850D02*
D03*
X287900D02*
D03*
Y459850D02*
D03*
X270900Y485250D02*
D03*
Y467250D02*
D03*
X287900D02*
D03*
Y485250D02*
D03*
X270900Y510650D02*
D03*
Y492650D02*
D03*
X287900D02*
D03*
Y510650D02*
D03*
X270900Y536050D02*
D03*
Y518050D02*
D03*
X287900D02*
D03*
Y536050D02*
D03*
X270900Y561450D02*
D03*
Y543450D02*
D03*
X287900D02*
D03*
Y561450D02*
D03*
X270900Y586850D02*
D03*
Y568850D02*
D03*
X287900D02*
D03*
Y586850D02*
D03*
X270900Y612250D02*
D03*
Y594250D02*
D03*
X287900D02*
D03*
Y612250D02*
D03*
X270900Y637650D02*
D03*
Y619650D02*
D03*
X287900D02*
D03*
Y637650D02*
D03*
X270900Y663050D02*
D03*
Y645050D02*
D03*
X287900D02*
D03*
Y663050D02*
D03*
X270900Y688450D02*
D03*
Y670450D02*
D03*
X287900D02*
D03*
Y688450D02*
D03*
X270900Y713850D02*
D03*
Y695850D02*
D03*
X287900D02*
D03*
Y713850D02*
D03*
X270900Y739250D02*
D03*
Y721250D02*
D03*
X287900D02*
D03*
Y739250D02*
D03*
X270900Y764650D02*
D03*
Y746650D02*
D03*
X287900D02*
D03*
Y764650D02*
D03*
X270900Y790050D02*
D03*
Y772050D02*
D03*
X287900D02*
D03*
Y790050D02*
D03*
D43*
X668900Y69850D02*
D03*
X651900D02*
D03*
X668900Y806450D02*
D03*
X651900D02*
D03*
X289424Y871850D02*
D03*
X272424D02*
D03*
X289424Y846450D02*
D03*
X272424D02*
D03*
X287900Y806450D02*
D03*
X270900D02*
D03*
X287900Y69850D02*
D03*
X270900D02*
D03*
X651900Y450850D02*
D03*
X668900D02*
D03*
X651900Y476250D02*
D03*
X668900D02*
D03*
X651900Y501650D02*
D03*
X668900D02*
D03*
X651900Y527050D02*
D03*
X668900D02*
D03*
X651900Y552450D02*
D03*
X668900D02*
D03*
X651900Y577850D02*
D03*
X668900D02*
D03*
X651900Y603250D02*
D03*
X668900D02*
D03*
X651900Y628650D02*
D03*
X668900D02*
D03*
X651900Y654050D02*
D03*
X668900D02*
D03*
X651900Y679450D02*
D03*
X668900D02*
D03*
X651900Y704850D02*
D03*
X668900D02*
D03*
X651900Y730250D02*
D03*
X668900D02*
D03*
X651900Y755650D02*
D03*
X668900D02*
D03*
X651900Y781050D02*
D03*
X668900D02*
D03*
X651900Y425450D02*
D03*
X668900D02*
D03*
X651900Y400050D02*
D03*
X668900D02*
D03*
X651900Y374650D02*
D03*
X668900D02*
D03*
X651900Y349250D02*
D03*
X668900D02*
D03*
X651900Y323850D02*
D03*
X668900D02*
D03*
X651900Y298450D02*
D03*
X668900D02*
D03*
X651900Y273050D02*
D03*
X668900D02*
D03*
X651900Y247650D02*
D03*
X668900D02*
D03*
X651900Y222250D02*
D03*
X668900D02*
D03*
X651900Y196850D02*
D03*
X668900D02*
D03*
X651900Y171450D02*
D03*
X668900D02*
D03*
X651900Y146050D02*
D03*
X668900D02*
D03*
X651900Y120650D02*
D03*
X668900D02*
D03*
X651900Y95250D02*
D03*
X668900D02*
D03*
X270900Y425450D02*
D03*
X287900D02*
D03*
X270900Y400050D02*
D03*
X287900D02*
D03*
X270900Y374650D02*
D03*
X287900D02*
D03*
X270900Y349250D02*
D03*
X287900D02*
D03*
X270900Y323850D02*
D03*
X287900D02*
D03*
X270900Y298450D02*
D03*
X287900D02*
D03*
X270900Y273050D02*
D03*
X287900D02*
D03*
X270900Y247650D02*
D03*
X287900D02*
D03*
X270900Y222250D02*
D03*
X287900D02*
D03*
X270900Y196850D02*
D03*
X287900D02*
D03*
X270900Y171450D02*
D03*
X287900D02*
D03*
X270900Y146050D02*
D03*
X287900D02*
D03*
X270900Y120650D02*
D03*
X287900D02*
D03*
X270900Y95250D02*
D03*
X287900D02*
D03*
X270900Y450850D02*
D03*
X287900D02*
D03*
X270900Y476250D02*
D03*
X287900D02*
D03*
X270900Y501650D02*
D03*
X287900D02*
D03*
X270900Y527050D02*
D03*
X287900D02*
D03*
X270900Y552450D02*
D03*
X287900D02*
D03*
X270900Y577850D02*
D03*
X287900D02*
D03*
X270900Y603250D02*
D03*
X287900D02*
D03*
X270900Y628650D02*
D03*
X287900D02*
D03*
X270900Y654050D02*
D03*
X287900D02*
D03*
X270900Y679450D02*
D03*
X287900D02*
D03*
X270900Y704850D02*
D03*
X287900D02*
D03*
X270900Y730250D02*
D03*
X287900D02*
D03*
X270900Y755650D02*
D03*
X287900D02*
D03*
X270900Y781050D02*
D03*
X287900D02*
D03*
D44*
X629790Y945642D02*
D03*
X604650D02*
D03*
D45*
X109882Y817442D02*
D03*
X128882D02*
D03*
X109882Y793892D02*
D03*
X128882D02*
D03*
X74524Y1168908D02*
D03*
X55524D02*
D03*
D46*
X147574Y769490D02*
D03*
Y784990D02*
D03*
X50800Y956180D02*
D03*
Y971680D02*
D03*
X127508Y1171578D02*
D03*
Y1156078D02*
D03*
D47*
X112882Y752044D02*
D03*
X119382D02*
D03*
X125882D02*
D03*
Y771544D02*
D03*
X119382D02*
D03*
X112882D02*
D03*
D48*
X119382Y761794D02*
D03*
D49*
X89916Y797678D02*
D03*
Y812178D02*
D03*
D50*
X91062Y783080D02*
D03*
Y776080D02*
D03*
X91527Y757395D02*
D03*
Y764395D02*
D03*
D51*
X148635Y728864D02*
D03*
Y747864D02*
D03*
X93472Y956158D02*
D03*
Y937158D02*
D03*
X106934Y1085292D02*
D03*
Y1066292D02*
D03*
X41402Y1127404D02*
D03*
Y1146404D02*
D03*
X153670Y1168552D02*
D03*
Y1187552D02*
D03*
D52*
X486300Y986400D02*
D03*
X504300D02*
D03*
Y969400D02*
D03*
X486300D02*
D03*
X460900Y986400D02*
D03*
X478900D02*
D03*
Y969400D02*
D03*
X460900D02*
D03*
X435500Y986400D02*
D03*
X453500D02*
D03*
Y969400D02*
D03*
X435500D02*
D03*
D53*
X495300Y986400D02*
D03*
Y969400D02*
D03*
X469900Y986400D02*
D03*
Y969400D02*
D03*
X444500Y986400D02*
D03*
Y969400D02*
D03*
D54*
X80518Y974852D02*
D03*
Y987552D02*
D03*
X100838Y981202D02*
D03*
D55*
X29464Y970874D02*
D03*
Y949874D02*
D03*
D56*
X182734Y1074104D02*
D03*
X132734D02*
D03*
D57*
X157734Y971104D02*
D03*
D58*
X62636Y1124904D02*
D03*
X72136D02*
D03*
X81636D02*
D03*
X62636Y1148904D02*
D03*
X81636D02*
D03*
D59*
X34650Y781812D02*
D03*
D60*
X32150Y756412D02*
D03*
Y769112D02*
D03*
D61*
X53790Y1220470D02*
D03*
X137010D02*
D03*
D62*
X72494Y1189990D02*
D03*
X117960D02*
D03*
D63*
X208790Y1203970D02*
D03*
X748790D02*
D03*
D64*
X608140Y1187870D02*
D03*
X349140D02*
D03*
D65*
X95250Y565150D02*
D03*
Y590550D02*
D03*
Y615950D02*
D03*
X44450Y565150D02*
D03*
Y590550D02*
D03*
Y615950D02*
D03*
D66*
X736600Y38100D02*
D03*
X38100Y1028700D02*
D03*
Y38100D02*
D03*
X736600Y1041400D02*
D03*
D67*
X472440Y1037590D02*
D03*
X497840D02*
D03*
X447040Y1012190D02*
D03*
X497840D02*
D03*
X472440D02*
D03*
X340800Y1037590D02*
D03*
Y1012190D02*
D03*
X290000D02*
D03*
X315400D02*
D03*
X264600D02*
D03*
X315400Y1037590D02*
D03*
X290000D02*
D03*
X366200Y1012190D02*
D03*
Y1037590D02*
D03*
D68*
X447040D02*
D03*
X264600D02*
D03*
D69*
X54150Y781812D02*
D03*
Y769112D02*
D03*
Y756412D02*
D03*
D70*
X33150Y743912D02*
D03*
Y794312D02*
D03*
D71*
X469392Y95250D02*
D03*
X469900Y781050D02*
D03*
D72*
X444500Y871850D02*
D03*
X419100D02*
D03*
X393700D02*
D03*
X495300D02*
D03*
X520700D02*
D03*
X546100D02*
D03*
X342900D02*
D03*
X368300D02*
D03*
X596900D02*
D03*
X571500D02*
D03*
Y846450D02*
D03*
X596900D02*
D03*
X368300D02*
D03*
X342900D02*
D03*
X546100D02*
D03*
X520700D02*
D03*
X495300D02*
D03*
X393700D02*
D03*
X419100D02*
D03*
X444500D02*
D03*
D73*
X185674Y799482D02*
D03*
X158646Y770205D02*
D03*
X138684Y800862D02*
D03*
X142810Y817442D02*
D03*
X132734Y1074104D02*
D03*
X656321Y994664D02*
D03*
X453500Y999380D02*
D03*
X579374Y994156D02*
D03*
X478790Y957580D02*
D03*
X504190D02*
D03*
X701040Y1139919D02*
D03*
X713740D02*
D03*
X726440D02*
D03*
X302150Y862596D02*
D03*
X71374Y974598D02*
D03*
X617220Y1013206D02*
D03*
X176316Y871850D02*
D03*
X447040Y1094740D02*
D03*
X576834Y1056132D02*
D03*
X548640Y1094740D02*
D03*
X497840D02*
D03*
X294386Y1091946D02*
D03*
X408940Y1094740D02*
D03*
X320040Y1092200D02*
D03*
X340800D02*
D03*
X650240Y1139919D02*
D03*
X637540D02*
D03*
X535940D02*
D03*
X523240D02*
D03*
X510540D02*
D03*
X148635Y738364D02*
D03*
X104906Y713850D02*
D03*
X119382Y745600D02*
D03*
Y779152D02*
D03*
X107696Y752044D02*
D03*
X41402Y1112774D02*
D03*
X62636D02*
D03*
X94804Y1066292D02*
D03*
X182734Y1060958D02*
D03*
Y1074104D02*
D03*
Y1087560D02*
D03*
X132734D02*
D03*
Y1060958D02*
D03*
X94804Y1085292D02*
D03*
X81342Y937158D02*
D03*
X29464Y937744D02*
D03*
X29272Y1146404D02*
D03*
X55524Y1181038D02*
D03*
X92128Y1148904D02*
D03*
X72136Y1112774D02*
D03*
X639138Y60960D02*
D03*
Y797560D02*
D03*
X259080Y61104D02*
D03*
X260604Y837704D02*
D03*
X260350Y862850D02*
D03*
X453390Y957580D02*
D03*
X504190Y999490D02*
D03*
X300736Y60960D02*
D03*
Y86360D02*
D03*
Y111760D02*
D03*
Y137160D02*
D03*
Y162560D02*
D03*
Y187960D02*
D03*
Y213360D02*
D03*
Y238760D02*
D03*
Y264160D02*
D03*
Y289560D02*
D03*
Y314960D02*
D03*
Y340360D02*
D03*
Y365760D02*
D03*
Y391160D02*
D03*
Y416560D02*
D03*
Y441960D02*
D03*
Y467360D02*
D03*
Y492760D02*
D03*
Y518160D02*
D03*
Y543560D02*
D03*
Y568960D02*
D03*
Y594360D02*
D03*
Y619760D02*
D03*
Y645160D02*
D03*
Y670560D02*
D03*
Y695960D02*
D03*
Y721360D02*
D03*
Y746760D02*
D03*
Y772160D02*
D03*
Y797306D02*
D03*
X681990Y60960D02*
D03*
Y797560D02*
D03*
M02*
